<?xml version="1.0" encoding="UTF-8" standalone="no"?>
<!-- Created with Inkscape (http://www.inkscape.org/) -->

<svg
   xmlns:dc="http://purl.org/dc/elements/1.1/"
   xmlns:cc="http://creativecommons.org/ns#"
   xmlns:rdf="http://www.w3.org/1999/02/22-rdf-syntax-ns#"
   xmlns:svg="http://www.w3.org/2000/svg"
   xmlns="http://www.w3.org/2000/svg"
   version="1.1"
   width="400pt"
   height="400pt"
   viewBox="0 0 500 500"
   id="svg548">
  <metadata
     id="metadata3">
    <rdf:RDF>
      <cc:Work
         rdf:about="">
        <dc:title></dc:title>
        <dc:description />
        <dc:subject>
          <rdf:Bag>
            <rdf:li>unsorted</rdf:li>
          </rdf:Bag>
        </dc:subject>
        <dc:publisher>
          <cc:Agent
             rdf:about="http://www.openclipart.org">
            <dc:title>Nicu Buculei</dc:title>
          </cc:Agent>
        </dc:publisher>
        <dc:creator>
          <cc:Agent>
            <dc:title>Nicu Buculei</dc:title>
          </cc:Agent>
        </dc:creator>
        <dc:rights>
          <cc:Agent>
            <dc:title>Nicu Buculei</dc:title>
          </cc:Agent>
        </dc:rights>
        <dc:date />
        <dc:format>image/svg+xml</dc:format>
        <dc:type
           rdf:resource="http://purl.org/dc/dcmitype/StillImage" />
        <cc:license
           rdf:resource="http://web.resource.org/cc/PublicDomain" />
        <dc:language>en</dc:language>
      </cc:Work>
      <cc:License
         rdf:about="http://web.resource.org/cc/PublicDomain">
        <cc:permits
           rdf:resource="http://web.resource.org/cc/Reproduction" />
        <cc:permits
           rdf:resource="http://web.resource.org/cc/Distribution" />
        <cc:permits
           rdf:resource="http://web.resource.org/cc/DerivativeWorks" />
      </cc:License>
    </rdf:RDF>
  </metadata>
  <defs
     id="defs550" />
  <g
     id="g842">
    <path
       d="m 177.5,471.25 c 0,0 -72.5,-10 -90,-21.25 C 70,438.75 60,437.5 51.25,412.5 c -2.5,-27.5 -10,-41.25 0,-60 10,-18.75 33.75,-35 48.75,-51.25 15,-16.25 167.5,-127.5 177.5,-132.5 5,-1.25 17.5,-11.25 38.75,-15 20,-2.5 38.75,-6.25 65,-6.25 26.25,0 55,8.75 71.25,13.75 16.25,5 16.25,5 16.25,5"
       transform="matrix(1.09013,0,0,1.122765,-42.91366,-67.94697)"
       id="path637"
       style="fill:#88a3bd;fill-rule:evenodd;stroke:#000000;stroke-width:11.29864693;stroke-linejoin:round" />
    <path
       d="m 163.75,348.75 c 15,-16.25 180,-157.5 228.75,-171.25 48.75,-13.75 71.25,-20 80,-7.5 8.75,12.5 17.5,30 17.5,41.25 0,11.25 -3.75,46.25 -3.75,46.25 0,0 -283.75,207.5 -290,208.75 -6.25,1.25 -13.75,13.75 -25,-2.5 C 160,447.5 145,441.25 145,411.25 c 3.75,-35 6.25,-50 18.75,-62.5 z"
       transform="matrix(1.09013,0,0,1.122765,-42.91366,-67.94697)"
       id="path636"
       style="fill:#6f93b4;fill-rule:evenodd;stroke:#000000;stroke-width:11.29864693;stroke-linejoin:round" />
    <path
       d="m 186.179,233.645 c 2.5,0 78.821,28.855 78.821,28.855 0,0 73.75,-56.25 105,-75 33.75,-11.25 87.5,-23.75 87.5,-23.75 0,0 -57.5,-18.75 -75,-17.5 -5,0 -75,6.25 -85,11.25 -15,5 -110.071,77.395 -111.321,76.145 z"
       transform="matrix(1.09013,0,0,1.122765,-42.91366,-67.94697)"
       id="path640"
       style="fill:#ffa3bd;fill-rule:evenodd;stroke:#000000;stroke-width:9.03891754;stroke-linejoin:round;stroke-opacity:1;stroke-dasharray:none" />
    <path
       d="m 265,263.75 92.5,87.5 c 0,0 79.37,-57.773 128.647,-93.613 C 495.837,233.047 490,215 488.75,205 c -1.25,-10 -12.5,-41.25 -27.5,-40 -22.5,0 -68.75,10 -101.25,25 -30,21.25 -97.5,76.25 -95,73.75 z"
       transform="matrix(1.09013,0,0,1.122765,-42.91366,-67.94697)"
       id="path641"
       style="fill:#e19dae;fill-rule:evenodd;stroke:#000000;stroke-width:9.03891754;stroke-linejoin:round;stroke-opacity:1;stroke-dasharray:none" />
    <path
       d="m 51.25,411.2732 100.01353,20.0232 329.97294,-247.47681 c 0,0 6.26353,11.18041 6.26353,12.43041 0,1.25 -331.25,250 -331.25,250 l -100,-21.25 -5,-13.7268 z"
       transform="matrix(1.09013,0,0,1.122765,-42.91366,-67.94697)"
       id="path642"
       style="fill:#ffffff;fill-rule:evenodd;stroke:#000000;stroke-width:9.03891754;stroke-linejoin:round;stroke-opacity:1;stroke-dasharray:none" />
    <path
       d="m 150,435 7.5,12.5"
       transform="matrix(1.09013,0,0,1.122765,-42.91366,-67.94697)"
       id="path643"
       style="fill:none;stroke:#000000;stroke-width:9.03891754;stroke-linejoin:round;stroke-opacity:1;stroke-dasharray:none" />
    <path
       d="m 26.25,396.25 c 6.25,-5 20,-1.25 32.5,-1.25 12.5,0 28.75,3.75 37.5,12.5 8.75,8.75 10,5 20,21.25 C 126.25,445 147.5,450 128.75,450 110,450 61.25,440 52.5,432.5 43.75,425 41.25,428.75 28.75,413.75 17.5,381.25 26.25,397.5 26.25,396.25 z"
       id="path645"
       style="fill-opacity:0.24999994;fill-rule:evenodd;stroke:none" />
    <path
       d="m 98.9612,353.486 c -30.8451,-2.57 -64.2606,-6.426 -80.9682,-20.563 5.1408,-14.138 125.95,-116.954 125.95,-116.954 0,0 -137.51695,114.383 -44.9818,137.517 z"
       id="path558"
       style="fill:#ffffff;fill-opacity:0.5;fill-rule:evenodd;stroke:none" />
  </g>
</svg>
